<?xml version="1.0" encoding="UTF-8" standalone="no"?>
<!-- Created with Inkscape (http://www.inkscape.org/) -->

<svg
   width="15.988942mm"
   height="13.877809mm"
   viewBox="0 0 15.988942 13.877809"
   version="1.1"
   id="svg1"
   inkscape:version="1.4 (86a8ad7, 2024-10-11)"
   xmlns:inkscape="http://www.inkscape.org/namespaces/inkscape"
   xmlns:sodipodi="http://sodipodi.sourceforge.net/DTD/sodipodi-0.dtd"
   xmlns="http://www.w3.org/2000/svg"
   xmlns:svg="http://www.w3.org/2000/svg">
  <sodipodi:namedview
     id="namedview1"
     pagecolor="#ffffff"
     bordercolor="#000000"
     borderopacity="0.25"
     inkscape:showpageshadow="2"
     inkscape:pageopacity="0.0"
     inkscape:pagecheckerboard="0"
     inkscape:deskcolor="#d1d1d1"
     inkscape:document-units="mm"
     inkscape:zoom="9.457873"
     inkscape:cx="31.085213"
     inkscape:cy="26.062943"
     inkscape:window-width="1920"
     inkscape:window-height="991"
     inkscape:window-x="-9"
     inkscape:window-y="-9"
     inkscape:window-maximized="1"
     inkscape:current-layer="layer1" />
  <defs
     id="defs1">
    <clipPath
       id="c3e77eb560">
      <path
         d="m 219,168 h 49.45703 v 67.65234 H 219 Z m 0,0"
         id="path2" />
    </clipPath>
    <clipPath
       clipPathUnits="userSpaceOnUse"
       id="clipPath31">
      <path
         d="m 33.661181,121.37243 h 28.22222 v 51.85833 h -28.22222 z m 0,0"
         id="path32"
         style="stroke-width:0.999998" />
    </clipPath>
    <clipPath
       clipPathUnits="userSpaceOnUse"
       id="clipPath43">
      <path
         d="m 60.408092,209.23289 h 17.44734 v 23.86624 h -17.44734 z m 0,0"
         id="path44"
         style="stroke-width:0.999998" />
    </clipPath>
    <clipPath
       clipPathUnits="userSpaceOnUse"
       id="clipPath1">
      <path
         d="m 60.408092,209.23289 h 17.44734 v 23.86624 h -17.44734 z m 0,0"
         id="path1"
         style="stroke-width:0.999998" />
    </clipPath>
    <clipPath
       clipPathUnits="userSpaceOnUse"
       id="clipPath43-06">
      <path
         d="m 60.408092,209.23289 h 17.44734 v 23.86624 h -17.44734 z m 0,0"
         id="path44-1"
         style="stroke-width:0.999998" />
    </clipPath>
    <clipPath
       id="fb47fa58bd">
      <path
         d="M 99.707031,168 H 149 v 67.65234 H 99.707031 Z m 0,0"
         id="path3" />
    </clipPath>
    <clipPath
       id="c3e77eb560-6">
      <path
         d="m 219,168 h 49.45703 v 67.65234 H 219 Z m 0,0"
         id="path2-0" />
    </clipPath>
    <clipPath
       clipPathUnits="userSpaceOnUse"
       id="clipPath31-6">
      <path
         d="m 33.661181,121.37243 h 28.22222 v 51.85833 h -28.22222 z m 0,0"
         id="path32-6"
         style="stroke-width:0.999998" />
    </clipPath>
    <clipPath
       clipPathUnits="userSpaceOnUse"
       id="clipPath43-1">
      <path
         d="m 60.408092,209.23289 h 17.44734 v 23.86624 h -17.44734 z m 0,0"
         id="path44-8"
         style="stroke-width:0.999998" />
    </clipPath>
    <clipPath
       clipPathUnits="userSpaceOnUse"
       id="clipPath1-4">
      <path
         d="m 60.408092,209.23289 h 17.44734 v 23.86624 h -17.44734 z m 0,0"
         id="path1-9"
         style="stroke-width:0.999998" />
    </clipPath>
    <clipPath
       clipPathUnits="userSpaceOnUse"
       id="clipPath43-06-6">
      <path
         d="m 60.408092,209.23289 h 17.44734 v 23.86624 h -17.44734 z m 0,0"
         id="path44-1-3"
         style="stroke-width:0.999998" />
    </clipPath>
    <clipPath
       id="fb47fa58bd-7">
      <path
         d="M 99.707031,168 H 149 v 67.65234 H 99.707031 Z m 0,0"
         id="path3-8" />
    </clipPath>
  </defs>
  <g
     inkscape:label="Layer 1"
     inkscape:groupmode="layer"
     id="layer1"
     transform="translate(-111.04135,-101.35091)">
    <g
       clip-rule="nonzero"
       clip-path="url(#c3e77eb560)"
       id="g48"
       transform="matrix(0.09475148,0,0,0.09475148,101.59396,92.94139)"
       style="stroke-width:3.72319">
      <path
         style="fill:#115777;fill-opacity:1;fill-rule:nonzero;stroke:none;stroke-width:3.72319"
         d="m 268.45312,235.21875 h -20.91406 l -28.0039,-48.58984 10.45703,-18.1836 z m 0,0"
         id="path48" />
    </g>
    <path
       id="path49"
       clip-path="url(#clipPath31)"
       style="clip-rule:nonzero;fill:#115777;fill-opacity:1;fill-rule:nonzero;stroke:none;stroke-width:1.31346"
       d="M 58.024365,136.68623 49.2125,121.40809 36.802922,142.95406 50.471855,166.68802 H 33.946248 l 3.686597,6.38979 h 23.904484 l -17.356046,-30.12375 5.031217,-8.73848 5.109249,8.84959 z"
       transform="matrix(0.26858688,0,0,0.26858688,105.81822,68.74229)" />
    <g
       clip-rule="nonzero"
       clip-path="url(#fb47fa58bd)"
       id="g50"
       transform="matrix(0.09475148,0,0,0.09475148,101.59396,92.94139)"
       style="stroke-width:3.72319">
      <path
         style="fill:#115777;fill-opacity:1;fill-rule:nonzero;stroke:none;stroke-width:3.72319"
         d="m 148.72656,186.60547 -28.10547,48.61328 H 99.707031 l 38.558589,-66.79297 z m 0,0"
         id="path50" />
    </g>
    <path
       id="path55"
       clip-path="url(#clipPath43)"
       style="clip-rule:nonzero;fill:#0097e0;fill-opacity:1;fill-rule:nonzero;stroke:none;stroke-width:1.31346"
       d="m 74.178935,226.5655 -3.703133,6.37997 v 5.2e-4 h 2.465482 l 4.911845,-0.002 z"
       transform="matrix(0.26858688,0,0,0.26858688,106.11972,52.66243)" />
    <path
       id="path56"
       clip-path="url(#clipPath43)"
       style="clip-rule:nonzero;fill:#0097e0;fill-opacity:1;fill-rule:nonzero;stroke:none;stroke-width:1.31346"
       d="m 64.298401,209.41099 -2.636015,4.54081 -1.065568,1.85312 10e-4,0.002 7.382495,-0.003 z"
       transform="matrix(0.26858688,0,0,0.26858688,106.11972,52.66243)"
       sodipodi:nodetypes="cccccc" />
    <path
       id="path4"
       clip-path="url(#clipPath43-06)"
       style="clip-rule:nonzero;fill:#0097e0;fill-opacity:1;fill-rule:nonzero;stroke:none;stroke-width:1.31346"
       d="m 64.298401,209.41099 -2.636015,4.54081 -1.065568,1.85312 10e-4,0.002 7.382495,-0.003 z"
       transform="matrix(0.26858688,0,0,0.26858688,104.1326,49.208279)"
       sodipodi:nodetypes="cccccc" />
  </g>
</svg>
