<svg id="Layer_1" data-name="Layer 1" xmlns="http://www.w3.org/2000/svg" viewBox="0 0 814 319.04"><defs><style>.cls-1,.cls-11,.cls-12,.cls-13,.cls-14,.cls-3,.cls-5{fill:none;}.cls-1,.cls-10,.cls-3,.cls-5,.cls-9{stroke:#1a4d90;}.cls-1,.cls-10,.cls-11,.cls-12,.cls-13,.cls-14,.cls-3,.cls-5,.cls-9{stroke-miterlimit:10;}.cls-1{opacity:0.2;}.cls-19,.cls-2,.cls-9{fill:#1a4d90;}.cls-3{stroke-linecap:round;}.cls-10,.cls-11,.cls-12,.cls-13,.cls-14,.cls-3,.cls-5,.cls-9{stroke-width:3px;}.cls-29,.cls-4{fill:#2d71b9;}.cls-33,.cls-6{fill:#35b14b;}.cls-37,.cls-7{fill:#f8c114;}.cls-40,.cls-8{fill:#6f3a96;}.cls-10,.cls-15,.cls-28{fill:#fff;}.cls-11{stroke:#2d71b9;}.cls-12{stroke:#35b14b;}.cls-13{stroke:#f8c114;}.cls-14{stroke:#6f3a96;}.cls-15,.cls-19{font-size:18.04px;}.cls-15,.cls-19,.cls-29,.cls-33,.cls-37,.cls-40{font-family:AvenirNext-DemiBold, Avenir Next;font-weight:300;}.cls-16,.cls-29,.cls-33,.cls-37,.cls-40{font-size:13.79px;}.cls-16,.cls-34{font-family:AvenirNext-Regular, Avenir Next;font-weight:400;}.cls-17{letter-spacing:-0.01em;}.cls-18{letter-spacing:-0.01em;}.cls-20{letter-spacing:-0.06em;}.cls-21{letter-spacing:-0.05em;}.cls-22{letter-spacing:-0.02em;}.cls-23{letter-spacing:-0.01em;}.cls-24{letter-spacing:-0.02em;}.cls-25{letter-spacing:-0.02em;}.cls-26{letter-spacing:-0.01em;}.cls-27{letter-spacing:-0.03em;}.cls-30{letter-spacing:-0.02em;}.cls-31{font-family:AvenirNext-Medium, Avenir Next;font-weight:500;}.cls-32{letter-spacing:-0.06em;}.cls-35{letter-spacing:-0.03em;}.cls-36{letter-spacing:-0.04em;}.cls-38{letter-spacing:-0.04em;}.cls-39{letter-spacing:-0.05em;}.cls-41{letter-spacing:0em;}</style></defs><line class="cls-1" x1="10.87" y1="128.85" x2="801.65" y2="128.85"/><circle class="cls-2" cx="14.32" cy="128.85" r="12.82"/><circle class="cls-2" cx="799.68" cy="128.85" r="12.82"/><line class="cls-3" x1="165.97" y1="95.68" x2="165.97" y2="126.45"/><circle class="cls-2" cx="165.97" cy="128.85" r="12.82"/><circle class="cls-4" cx="176.81" cy="128.85" r="12.82"/><line class="cls-5" x1="799.68" y1="95.15" x2="799.68" y2="125.92"/><circle class="cls-6" cx="328.46" cy="128.85" r="12.82"/><circle class="cls-7" cx="485.54" cy="128.85" r="12.82"/><circle class="cls-8" cx="642.61" cy="128.85" r="12.82"/><rect class="cls-4" x="108.83" y="157.69" width="135.98" height="161.36" rx="16.08"/><rect class="cls-6" x="264.09" y="157.69" width="135.98" height="161.36" rx="16.08"/><rect class="cls-7" x="419.36" y="157.69" width="135.98" height="161.36" rx="16.08"/><line class="cls-3" x1="14.32" y1="97.8" x2="14.32" y2="128.57"/><rect class="cls-8" x="574.62" y="157.69" width="135.98" height="161.36" rx="16.08"/><rect class="cls-9" x="1.5" y="44.21" width="135.98" height="59.58" rx="16.08"/><rect class="cls-10" x="153.15" y="44.21" width="281.82" height="59.58" rx="16.08"/><rect class="cls-10" x="662.05" y="27.77" width="150.45" height="76.03" rx="16.08"/><line class="cls-11" x1="176.81" y1="131.76" x2="176.81" y2="162.53"/><line class="cls-12" x1="328.46" y1="132.29" x2="328.46" y2="163.06"/><line class="cls-13" x1="485.54" y1="131.3" x2="485.54" y2="162.07"/><line class="cls-14" x1="641.89" y1="133.35" x2="641.89" y2="164.12"/><text class="cls-15" transform="translate(30.15 72.22)">PHASE II:<tspan class="cls-16"><tspan x="-22.73" y="16.55">mig</tspan><tspan class="cls-17" x="1.62" y="16.55">r</tspan><tspan class="cls-18" x="6.42" y="16.55">a</tspan><tspan x="13.64" y="16.55">tion complete</tspan></tspan></text><text class="cls-19" transform="translate(183.9 72.22)">PHASE III: <tspan class="cls-20" x="88.12" y="0">P</tspan><tspan x="97.95" y="0">olicy + </tspan><tspan class="cls-21" x="157.71" y="0">P</tspan><tspan class="cls-22" x="167.89" y="0">r</tspan><tspan x="174.13" y="0">ocess</tspan><tspan class="cls-16"><tspan x="41.22" y="16.55">upd</tspan><tspan class="cls-23" x="66.78" y="16.55">a</tspan><tspan x="74.01" y="16.55">tes go into e</tspan><tspan class="cls-24" x="152.04" y="16.55">f</tspan><tspan x="155.86" y="16.55">fect</tspan></tspan></text><text class="cls-19" transform="translate(695.47 55.54)">PHASE III:<tspan class="cls-16"><tspan x="-20.19" y="16.55">mig</tspan><tspan class="cls-17" x="4.16" y="16.55">r</tspan><tspan class="cls-18" x="8.96" y="16.55">a</tspan><tspan x="16.19" y="16.55">tion complete</tspan><tspan x="-21.05" y="33.11">+ hype</tspan><tspan class="cls-25" x="23.01" y="33.11">r</tspan><tspan x="27.64" y="33.11">-ca</tspan><tspan class="cls-24" x="46.32" y="33.11">r</tspan><tspan x="51.04" y="33.11">e period</tspan></tspan></text><text class="cls-19" transform="translate(681.13 15.41)">3Q/4Q 2022</text><text class="cls-19" transform="translate(219.89 32.04)"><tspan class="cls-26">J</tspan><tspan x="8.88" y="0">anuary 24</tspan><tspan class="cls-27" x="92.05" y="0">,</tspan><tspan x="96.2" y="0" xml:space="preserve"> 2022</tspan></text><text class="cls-19" transform="translate(31.96 33.09)">1Q 2021</text><path class="cls-28" d="M115.13,209.75H239a0,0,0,0,1,0,0v92.3a11.08,11.08,0,0,1-11.08,11.08H125.73a11.08,11.08,0,0,1-11.08-11.08V210.23a.48.48,0,0,1,.48-.48Z"/><path class="cls-28" d="M124.46,178.28a1.84,1.84,0,0,0,.52,1,1.48,1.48,0,0,0,1.07.39,1.74,1.74,0,0,0,.84-.18,1.52,1.52,0,0,0,.53-.51,1.9,1.9,0,0,0,.28-.72,4.63,4.63,0,0,0,.08-.85v-6.87h1v7a6.28,6.28,0,0,1-.1,1,3,3,0,0,1-.4,1,2.31,2.31,0,0,1-.8.75,2.57,2.57,0,0,1-1.31.29,2.64,2.64,0,0,1-1.75-.56,2.47,2.47,0,0,1-.87-1.44Z"/><path class="cls-28" d="M135.21,176.1a1.65,1.65,0,0,0-.44-1.25,1.84,1.84,0,0,0-1.28-.41,2.74,2.74,0,0,0-1.08.21,2.61,2.61,0,0,0-.84.55l-.53-.62a3,3,0,0,1,1.06-.66,3.86,3.86,0,0,1,1.48-.27,3.1,3.1,0,0,1,1,.15,2.37,2.37,0,0,1,.8.43,2,2,0,0,1,.54.74,2.49,2.49,0,0,1,.19,1v2.83c0,.25,0,.5,0,.77s0,.49.08.68h-.84c0-.16-.05-.33-.07-.51a5.06,5.06,0,0,1,0-.54h0a2.81,2.81,0,0,1-1,.93,2.93,2.93,0,0,1-1.35.28,2.89,2.89,0,0,1-.76-.1,2.16,2.16,0,0,1-.72-.34,1.87,1.87,0,0,1-.54-.61,1.83,1.83,0,0,1-.21-.91,1.72,1.72,0,0,1,.38-1.19,2.33,2.33,0,0,1,1-.65,6,6,0,0,1,1.46-.27c.54-.05,1.11-.07,1.7-.07Zm-.28,1a11.37,11.37,0,0,0-1.16,0,4.66,4.66,0,0,0-1.06.19,2.07,2.07,0,0,0-.78.42.92.92,0,0,0-.31.73,1.27,1.27,0,0,0,.13.58,1.09,1.09,0,0,0,.36.38,1.35,1.35,0,0,0,.49.21,2.48,2.48,0,0,0,.54.06,2.19,2.19,0,0,0,.88-.17,1.85,1.85,0,0,0,.65-.47,2,2,0,0,0,.4-.69,2.38,2.38,0,0,0,.14-.81v-.48Z"/><path class="cls-28" d="M139.35,173.82c0,.17,0,.37,0,.58s0,.39,0,.52h0a2.13,2.13,0,0,1,.9-.91,2.56,2.56,0,0,1,1.31-.36,2.26,2.26,0,0,1,1.84.74,2.88,2.88,0,0,1,.61,1.93v4h-.93V176.7a4.35,4.35,0,0,0-.09-.92,1.89,1.89,0,0,0-.28-.71,1.28,1.28,0,0,0-.54-.46,1.92,1.92,0,0,0-.85-.17,1.82,1.82,0,0,0-.72.15,2,2,0,0,0-.63.46,2.39,2.39,0,0,0-.44.79,3.46,3.46,0,0,0-.16,1.13v3.31h-.94v-5c0-.17,0-.4,0-.68s0-.52,0-.74Z"/><path class="cls-28" d="M151.21,180.28c0-.18,0-.37,0-.58s0-.39,0-.53h0a2.1,2.1,0,0,1-.9.92,2.65,2.65,0,0,1-1.31.35,2.26,2.26,0,0,1-1.84-.73,2.9,2.9,0,0,1-.61-1.93v-4h.93v3.57a4.45,4.45,0,0,0,.09.93,2,2,0,0,0,.28.71,1.28,1.28,0,0,0,.54.46,1.92,1.92,0,0,0,.85.16,1.79,1.79,0,0,0,.72-.15,1.74,1.74,0,0,0,.63-.46,2.44,2.44,0,0,0,.44-.78,3.49,3.49,0,0,0,.17-1.13v-3.31h.93v5c0,.18,0,.41,0,.68s0,.53,0,.75Z"/><path class="cls-28" d="M158.61,176.1a1.62,1.62,0,0,0-.45-1.25,1.82,1.82,0,0,0-1.28-.41,2.72,2.72,0,0,0-1.07.21,2.55,2.55,0,0,0-.85.55l-.52-.62a3,3,0,0,1,1.06-.66,3.83,3.83,0,0,1,1.48-.27,3.14,3.14,0,0,1,1,.15,2.47,2.47,0,0,1,.8.43,2,2,0,0,1,.54.74,2.67,2.67,0,0,1,.19,1v2.83c0,.25,0,.5,0,.77a4,4,0,0,0,.08.68h-.84c0-.16,0-.33-.07-.51a5.17,5.17,0,0,1,0-.54h0a2.66,2.66,0,0,1-1,.93,2.91,2.91,0,0,1-1.34.28,3,3,0,0,1-.77-.1,2,2,0,0,1-.71-.34,1.87,1.87,0,0,1-.54-.61,1.73,1.73,0,0,1-.22-.91,1.77,1.77,0,0,1,.38-1.19,2.36,2.36,0,0,1,1-.65,5.94,5.94,0,0,1,1.45-.27c.55-.05,1.12-.07,1.71-.07Zm-.28,1a11.45,11.45,0,0,0-1.17,0,4.77,4.77,0,0,0-1.06.19,2.15,2.15,0,0,0-.78.42.94.94,0,0,0-.3.73,1.16,1.16,0,0,0,.13.58,1.07,1.07,0,0,0,.35.38,1.43,1.43,0,0,0,.49.21,2.51,2.51,0,0,0,.55.06,2.23,2.23,0,0,0,.88-.17,1.94,1.94,0,0,0,.65-.47,2.15,2.15,0,0,0,.4-.69,2.38,2.38,0,0,0,.14-.81v-.48Z"/><path class="cls-28" d="M161.89,174.56c0-.27,0-.52,0-.74h.89c0,.17,0,.37,0,.58s0,.39,0,.52h0a2.3,2.3,0,0,1,2.07-1.27l.32,0,.3.05-.13.9-.27-.06-.39,0a1.78,1.78,0,0,0-.72.14,1.48,1.48,0,0,0-.6.43,2.2,2.2,0,0,0-.41.76,3.23,3.23,0,0,0-.16,1.1v3.31h-.94v-5C161.9,175.07,161.9,174.84,161.89,174.56Z"/><path class="cls-28" d="M169.09,179.27h0l2-5.45h1l-3.22,8.12a3.49,3.49,0,0,1-.73,1.2,1.75,1.75,0,0,1-1.29.45,4,4,0,0,1-.85-.09l.1-.85a2.26,2.26,0,0,0,.69.11,1,1,0,0,0,.76-.3,2.68,2.68,0,0,0,.48-.85l.53-1.35-2.76-6.44h1.05Z"/><path class="cls-28" d="M182.75,180.28h-6.24v-1l4-4c.15-.15.29-.31.44-.48a3.87,3.87,0,0,0,.37-.53,3.06,3.06,0,0,0,.27-.58,2.32,2.32,0,0,0,.09-.65,1.92,1.92,0,0,0-.15-.77,1.63,1.63,0,0,0-.42-.58,1.89,1.89,0,0,0-.62-.38,2.26,2.26,0,0,0-.74-.13,1.92,1.92,0,0,0-1.32.49,2.22,2.22,0,0,0-.69,1.25l-1-.19a2.67,2.67,0,0,1,.36-1,2.72,2.72,0,0,1,.67-.76,3,3,0,0,1,.89-.5,3.12,3.12,0,0,1,1.07-.18,3.81,3.81,0,0,1,1.13.17,2.84,2.84,0,0,1,.92.51,2.48,2.48,0,0,1,.64.85,2.64,2.64,0,0,1,.24,1.16,2.74,2.74,0,0,1-.14.87,3.46,3.46,0,0,1-.34.76,4.1,4.1,0,0,1-.5.68c-.2.22-.4.43-.61.64l-3.52,3.49h5.18Z"/><path class="cls-28" d="M189.82,177h1.44v.89h-1.44v2.36h-1v-2.36h-4.47v-1l4.14-6.44h1.29Zm-1-5.4h0l-3.41,5.4h3.44Z"/><path class="cls-28" d="M193.22,182.21h-.79l.92-3.24h1Z"/><path class="cls-28" d="M205.37,180.28h-6.24v-1l4-4c.15-.15.3-.31.44-.48a3.94,3.94,0,0,0,.38-.53,2.51,2.51,0,0,0,.26-.58,2.32,2.32,0,0,0,.1-.65,1.92,1.92,0,0,0-.15-.77,1.79,1.79,0,0,0-.43-.58,1.7,1.7,0,0,0-.62-.38,2.24,2.24,0,0,0-.73-.13,1.93,1.93,0,0,0-1.33.49,2.22,2.22,0,0,0-.69,1.25l-1-.19a2.89,2.89,0,0,1,.37-1,2.85,2.85,0,0,1,.66-.76,3.1,3.1,0,0,1,.89-.5,3.14,3.14,0,0,1,1.08-.18,3.75,3.75,0,0,1,1.12.17,3,3,0,0,1,.93.51,2.58,2.58,0,0,1,.63.85,2.64,2.64,0,0,1,.24,1.16,2.73,2.73,0,0,1-.13.87,3.49,3.49,0,0,1-.35.76,4.1,4.1,0,0,1-.5.68c-.19.22-.39.43-.61.64l-3.51,3.49h5.17Z"/><path class="cls-28" d="M210.42,170.26a2.52,2.52,0,0,1,1.53.45,3.41,3.41,0,0,1,1,1.17,5.71,5.71,0,0,1,.53,1.65,11.07,11.07,0,0,1,0,3.75,5.85,5.85,0,0,1-.53,1.64,3.28,3.28,0,0,1-1,1.16,2.88,2.88,0,0,1-3.06,0,3.09,3.09,0,0,1-1-1.16,5.54,5.54,0,0,1-.53-1.64,11.79,11.79,0,0,1,0-3.75,5.42,5.42,0,0,1,.53-1.65,3.2,3.2,0,0,1,1-1.17A2.52,2.52,0,0,1,210.42,170.26Zm0,.84a1.52,1.52,0,0,0-1.07.4,2.73,2.73,0,0,0-.68,1,5.77,5.77,0,0,0-.35,1.39,11.23,11.23,0,0,0,0,3,5.61,5.61,0,0,0,.35,1.37,2.69,2.69,0,0,0,.68,1,1.52,1.52,0,0,0,1.07.39,1.53,1.53,0,0,0,1.07-.39,2.81,2.81,0,0,0,.68-1,6.1,6.1,0,0,0,.35-1.37,11.23,11.23,0,0,0,0-3,6.28,6.28,0,0,0-.35-1.39,2.85,2.85,0,0,0-.68-1A1.54,1.54,0,0,0,210.42,171.1Z"/><path class="cls-28" d="M221.37,180.28h-6.23v-1l4-4c.14-.15.29-.31.43-.48a3.94,3.94,0,0,0,.38-.53,2.51,2.51,0,0,0,.26-.58,2,2,0,0,0,.1-.65,1.92,1.92,0,0,0-.15-.77,1.63,1.63,0,0,0-.42-.58,1.89,1.89,0,0,0-.62-.38,2.35,2.35,0,0,0-.74-.13,1.93,1.93,0,0,0-1.33.49,2.28,2.28,0,0,0-.69,1.25l-1-.19a2.89,2.89,0,0,1,.37-1,2.85,2.85,0,0,1,.66-.76,3.1,3.1,0,0,1,.89-.5,3.14,3.14,0,0,1,1.08-.18,3.75,3.75,0,0,1,1.12.17,2.79,2.79,0,0,1,.93.51,2.45,2.45,0,0,1,.63.85,2.64,2.64,0,0,1,.24,1.16,2.73,2.73,0,0,1-.13.87,4,4,0,0,1-.34.76,4.16,4.16,0,0,1-.51.68c-.19.22-.39.43-.6.64l-3.52,3.49h5.17Z"/><path class="cls-28" d="M229.37,180.28h-6.23v-1l4-4c.14-.15.29-.31.43-.48a3.94,3.94,0,0,0,.38-.53,2.51,2.51,0,0,0,.26-.58,2,2,0,0,0,.1-.65,1.92,1.92,0,0,0-.15-.77,1.63,1.63,0,0,0-.42-.58,1.89,1.89,0,0,0-.62-.38,2.3,2.3,0,0,0-.74-.13,1.93,1.93,0,0,0-1.33.49,2.26,2.26,0,0,0-.68,1.25l-1-.19a2.67,2.67,0,0,1,.36-1,2.85,2.85,0,0,1,.66-.76,3.1,3.1,0,0,1,.89-.5,3.14,3.14,0,0,1,1.08-.18,3.75,3.75,0,0,1,1.12.17,2.79,2.79,0,0,1,.93.51,2.48,2.48,0,0,1,.64.85,2.79,2.79,0,0,1,.23,1.16,2.73,2.73,0,0,1-.13.87,4,4,0,0,1-.34.76,4.16,4.16,0,0,1-.51.68c-.19.22-.39.43-.6.64l-3.52,3.49h5.17Z"/><path class="cls-28" d="M135.91,187l-3.08,9.79H131l-1.84-7h0l-1.91,7h-1.79L122.39,187h2.07l1.9,6.62h0l1.74-6.62h2.05l1.73,6.62h0l1.9-6.62Z"/><path class="cls-28" d="M141.92,194.87h-3.76l-.66,2h-2L139.1,187H141l3.64,9.79h-2Zm-.57-1.65L140,189.37h0l-1.31,3.85Z"/><path class="cls-28" d="M153,187l-3.62,9.79h-1.7L144.05,187h2.1l2.37,7h0l2.4-7Z"/><path class="cls-28" d="M154.36,187h6.26v1.73h-4.35v2.35h3.49v1.71h-3.49v2.27h4.64v1.73h-6.55Z"/><path class="cls-28" d="M167.87,189.62l-1.58,1.19-.91-1.4,2.87-2h1.51v9.46h-1.89Z"/><path class="cls-28" d="M178.2,196.58a4.53,4.53,0,0,1-1.58-1,4.4,4.4,0,0,1-1.06-1.57,6,6,0,0,1,0-4.09,4.7,4.7,0,0,1,1-1.6,4.3,4.3,0,0,1,1.55-1.05,5.24,5.24,0,0,1,2.05-.39,5.62,5.62,0,0,1,2.12.43A4.84,4.84,0,0,1,184,188.6l-1.37,1.16a3.52,3.52,0,0,0-2.52-1A2.85,2.85,0,0,0,179,189a2.79,2.79,0,0,0-.92.63,2.75,2.75,0,0,0-.62,1,4.07,4.07,0,0,0,.13,3,2.88,2.88,0,0,0,1,1.15,3,3,0,0,0,1.58.42,3.7,3.7,0,0,0,2-.55v-1.44H180v-1.67H184v4.22a5.25,5.25,0,0,1-1.72.88,7,7,0,0,1-2.14.33A5.55,5.55,0,0,1,178.2,196.58Z"/><path class="cls-28" d="M188.52,196.57a4.58,4.58,0,0,1-1.58-1,4.83,4.83,0,0,1-1-1.59,5.52,5.52,0,0,1-.36-2,5.43,5.43,0,0,1,.36-2,4.83,4.83,0,0,1,1-1.59,4.53,4.53,0,0,1,1.59-1,5.34,5.34,0,0,1,2-.38,5.42,5.42,0,0,1,2,.37,4.73,4.73,0,0,1,1.58,1,4.56,4.56,0,0,1,1,1.58,5.67,5.67,0,0,1,0,4.08,4.51,4.51,0,0,1-1,1.59,4.89,4.89,0,0,1-1.58,1,5.72,5.72,0,0,1-4,0Zm3.21-1.67a2.65,2.65,0,0,0,.94-.67,2.91,2.91,0,0,0,.62-1,3.63,3.63,0,0,0,.23-1.28,3.42,3.42,0,0,0-.39-1.64,2.85,2.85,0,0,0-1.06-1.14,2.82,2.82,0,0,0-1.51-.42,2.88,2.88,0,0,0-2.61,1.59,3.47,3.47,0,0,0-.37,1.61,3.51,3.51,0,0,0,.37,1.62,2.89,2.89,0,0,0,1.06,1.16,2.83,2.83,0,0,0,1.55.43A2.88,2.88,0,0,0,191.73,194.9Z"/><path class="cls-28" d="M196.89,191.73h4.17v1.69h-4.17Z"/><path class="cls-28" d="M202.81,187h1.94v8.06h4.36v1.73h-6.3Z"/><path class="cls-28" d="M210.68,187h1.95v9.79h-1.95Z"/><path class="cls-28" d="M223.05,187l-3.62,9.79h-1.71L214.08,187h2.1l2.37,7h0l2.4-7Z"/><path class="cls-28" d="M224.39,187h6.26v1.73h-4.34v2.35h3.48v1.71h-3.48v2.27h4.63v1.73h-6.55Z"/><text class="cls-29" transform="translate(126.04 232.91)">Plants<tspan class="cls-24" x="38.54" y="0"> </tspan><tspan x="41.74" y="0">A</tspan><tspan class="cls-30" x="51.48" y="0">f</tspan><tspan x="55.66" y="0">fected:</tspan><tspan class="cls-31"><tspan x="17.28" y="16.55">High </tspan><tspan class="cls-32" x="51.13" y="16.55">P</tspan><tspan x="58.44" y="16.55">oint</tspan></tspan></text><path class="cls-28" d="M270.4,209.75H394.24a0,0,0,0,1,0,0v92.3a11.08,11.08,0,0,1-11.08,11.08H281a11.08,11.08,0,0,1-11.08-11.08V210.23A.48.48,0,0,1,270.4,209.75Z"/><path class="cls-28" d="M289.54,178.59h0l3.27-8.08h1.52v9.77h-1v-8.49h0l-3.53,8.49h-.52l-3.53-8.49h0v8.49h-1v-9.77h1.51Z"/><path class="cls-28" d="M301,176.1a1.62,1.62,0,0,0-.44-1.25,1.82,1.82,0,0,0-1.28-.41,2.74,2.74,0,0,0-1.08.21,2.61,2.61,0,0,0-.84.55l-.52-.62a3,3,0,0,1,1-.66,3.88,3.88,0,0,1,1.49-.27,3.08,3.08,0,0,1,1,.15,2.37,2.37,0,0,1,.8.43,2,2,0,0,1,.54.74,2.49,2.49,0,0,1,.19,1v2.83c0,.25,0,.5,0,.77a5.14,5.14,0,0,0,.09.68h-.85c0-.16-.05-.33-.06-.51a5.17,5.17,0,0,1,0-.54h0a2.73,2.73,0,0,1-1,.93,3.22,3.22,0,0,1-2.11.18,2.16,2.16,0,0,1-.72-.34,2.13,2.13,0,0,1-.54-.61,1.83,1.83,0,0,1-.21-.91,1.77,1.77,0,0,1,.38-1.19,2.33,2.33,0,0,1,1-.65,6.12,6.12,0,0,1,1.46-.27c.55-.05,1.11-.07,1.7-.07Zm-.27,1a11.45,11.45,0,0,0-1.17,0,4.77,4.77,0,0,0-1.06.19,2.07,2.07,0,0,0-.78.42.94.94,0,0,0-.3.73,1.16,1.16,0,0,0,.13.58,1,1,0,0,0,.35.38,1.43,1.43,0,0,0,.49.21,2.48,2.48,0,0,0,.54.06,2.28,2.28,0,0,0,.89-.17,1.9,1.9,0,0,0,.64-.47,2,2,0,0,0,.4-.69,2.16,2.16,0,0,0,.14-.81v-.48Z"/><path class="cls-28" d="M304.24,174.56c0-.27,0-.52-.05-.74h.9c0,.17,0,.37,0,.58s0,.39,0,.52h0A2.27,2.27,0,0,1,306,174a2.22,2.22,0,0,1,1.24-.36l.33,0,.29.05-.12.9-.28-.06-.38,0a1.78,1.78,0,0,0-.72.14,1.48,1.48,0,0,0-.6.43,2.2,2.2,0,0,0-.41.76,3.23,3.23,0,0,0-.16,1.1v3.31h-.94v-5C304.25,175.07,304.24,174.84,304.24,174.56Z"/><path class="cls-28" d="M313.62,175.3a1.81,1.81,0,0,0-.69-.62,2,2,0,0,0-1-.24,2.54,2.54,0,0,0-1,.2,2.4,2.4,0,0,0-.78.55,2.49,2.49,0,0,0-.5.83,3.13,3.13,0,0,0-.17,1,3,3,0,0,0,.17,1,2.71,2.71,0,0,0,.49.82,2.3,2.3,0,0,0,.78.55,2.54,2.54,0,0,0,1,.2,2.26,2.26,0,0,0,1.05-.23,2.29,2.29,0,0,0,.7-.61l.7.52a3,3,0,0,1-1,.82,3.19,3.19,0,0,1-1.44.3,3.74,3.74,0,0,1-1.42-.25,3.17,3.17,0,0,1-1.09-.71,3.22,3.22,0,0,1-.69-1.08,3.77,3.77,0,0,1,0-2.7,3,3,0,0,1,.69-1.08,3.17,3.17,0,0,1,1.09-.71,3.74,3.74,0,0,1,1.42-.26,3.3,3.3,0,0,1,1.31.29,2.59,2.59,0,0,1,1.09.83Z"/><path class="cls-28" d="M316.86,174.88a1.92,1.92,0,0,1,.87-.89,2.64,2.64,0,0,1,1.29-.34,2.28,2.28,0,0,1,1.85.74,2.94,2.94,0,0,1,.61,1.93v4h-.94V176.7a5.17,5.17,0,0,0-.08-.92,2.07,2.07,0,0,0-.28-.71,1.42,1.42,0,0,0-.54-.46,2,2,0,0,0-.85-.17,1.87,1.87,0,0,0-.73.15,1.82,1.82,0,0,0-.62.46,2.23,2.23,0,0,0-.44.79,3.45,3.45,0,0,0-.17,1.13v3.31h-.94V169.85h.94v5Z"/><path class="cls-28" d="M333.05,180.28h-6.23v-1l4-4c.14-.15.29-.31.43-.48a3.94,3.94,0,0,0,.38-.53,2.51,2.51,0,0,0,.26-.58,2,2,0,0,0,.1-.65,1.92,1.92,0,0,0-.15-.77,1.63,1.63,0,0,0-.42-.58,1.89,1.89,0,0,0-.62-.38,2.3,2.3,0,0,0-.74-.13,1.93,1.93,0,0,0-1.33.49,2.34,2.34,0,0,0-.69,1.25l-1-.19a2.67,2.67,0,0,1,.36-1,2.85,2.85,0,0,1,.66-.76,3.1,3.1,0,0,1,.89-.5,3.14,3.14,0,0,1,1.08-.18,3.75,3.75,0,0,1,1.12.17,2.79,2.79,0,0,1,.93.51,2.61,2.61,0,0,1,.64.85A2.79,2.79,0,0,1,333,173a2.73,2.73,0,0,1-.13.87,4,4,0,0,1-.34.76,4.16,4.16,0,0,1-.51.68c-.19.22-.39.43-.6.64l-3.52,3.49h5.17Z"/><path class="cls-28" d="M339.4,175.1a2.56,2.56,0,0,1,1.32.93,2.7,2.7,0,0,1,.53,1.68,2.64,2.64,0,0,1-.26,1.17,2.81,2.81,0,0,1-.68.88,3.15,3.15,0,0,1-1,.56,3.67,3.67,0,0,1-2.39,0,3.15,3.15,0,0,1-1-.56,2.81,2.81,0,0,1-.68-.88,2.64,2.64,0,0,1-.26-1.17,3,3,0,0,1,.14-.92,2.62,2.62,0,0,1,1-1.33,3.38,3.38,0,0,1,.74-.36v0a2.19,2.19,0,0,1-.6-.33,2,2,0,0,1-.46-.51,2.41,2.41,0,0,1-.3-.65,2.17,2.17,0,0,1-.11-.72,2.51,2.51,0,0,1,.22-1.08,2.32,2.32,0,0,1,.6-.82,2.72,2.72,0,0,1,.87-.52,2.89,2.89,0,0,1,1.06-.19,2.93,2.93,0,0,1,1.06.19,2.66,2.66,0,0,1,.88.52,2.32,2.32,0,0,1,.6.82,2.51,2.51,0,0,1,.22,1.08,2.17,2.17,0,0,1-.11.72,2.41,2.41,0,0,1-.3.65,2,2,0,0,1-.46.51,2.19,2.19,0,0,1-.6.33ZM336,177.6a2.31,2.31,0,0,0,.15.83,1.76,1.76,0,0,0,.43.66,2.07,2.07,0,0,0,.68.43,2.47,2.47,0,0,0,1.75,0,2.07,2.07,0,0,0,.68-.43,1.89,1.89,0,0,0,.43-.66,2.31,2.31,0,0,0,.15-.83,2.12,2.12,0,0,0-.15-.81,1.89,1.89,0,0,0-1.11-1.08,2.63,2.63,0,0,0-1.75,0,1.92,1.92,0,0,0-.68.43,1.8,1.8,0,0,0-.43.65A2.12,2.12,0,0,0,336,177.6Zm.34-4.68a1.8,1.8,0,0,0,.14.71,1.63,1.63,0,0,0,.39.55,1.54,1.54,0,0,0,.57.36,1.77,1.77,0,0,0,.69.14,1.82,1.82,0,0,0,.7-.14,1.54,1.54,0,0,0,.57-.36,1.63,1.63,0,0,0,.39-.55,1.8,1.8,0,0,0,.14-.71,1.92,1.92,0,0,0-.14-.72,1.67,1.67,0,0,0-.38-.58,1.79,1.79,0,0,0-.56-.38,1.9,1.9,0,0,0-1.43,0,1.79,1.79,0,0,0-.56.38,1.67,1.67,0,0,0-.38.58A1.92,1.92,0,0,0,336.32,172.92Z"/><path class="cls-28" d="M343.52,182.21h-.78l.92-3.24h1Z"/><path class="cls-28" d="M355.67,180.28h-6.23v-1l4-4c.15-.15.29-.31.43-.48a3.22,3.22,0,0,0,.38-.53,3.06,3.06,0,0,0,.27-.58,2.32,2.32,0,0,0,.09-.65,1.92,1.92,0,0,0-.15-.77,1.63,1.63,0,0,0-.42-.58,1.89,1.89,0,0,0-.62-.38,2.26,2.26,0,0,0-.74-.13,1.92,1.92,0,0,0-1.32.49,2.22,2.22,0,0,0-.69,1.25l-1-.19a2.67,2.67,0,0,1,.36-1,2.72,2.72,0,0,1,.67-.76,3,3,0,0,1,.89-.5,3.08,3.08,0,0,1,1.07-.18,3.81,3.81,0,0,1,1.13.17,2.84,2.84,0,0,1,.92.51,2.48,2.48,0,0,1,.64.85,2.64,2.64,0,0,1,.24,1.16,2.74,2.74,0,0,1-.14.87,3.46,3.46,0,0,1-.34.76,4.1,4.1,0,0,1-.5.68c-.2.22-.4.43-.61.64l-3.52,3.49h5.17Z"/><path class="cls-28" d="M360.73,170.26a2.49,2.49,0,0,1,1.52.45,3.33,3.33,0,0,1,1,1.17,6,6,0,0,1,.53,1.65,11.79,11.79,0,0,1,0,3.75,6.19,6.19,0,0,1-.53,1.64,3.21,3.21,0,0,1-1,1.16,2.86,2.86,0,0,1-3.05,0,3.21,3.21,0,0,1-1-1.16,5.53,5.53,0,0,1-.52-1.64,11.79,11.79,0,0,1,0-3.75,5.42,5.42,0,0,1,.52-1.65,3.33,3.33,0,0,1,1-1.17A2.5,2.5,0,0,1,360.73,170.26Zm0,.84a1.57,1.57,0,0,0-1.08.4,3,3,0,0,0-.68,1,5.77,5.77,0,0,0-.34,1.39,11.23,11.23,0,0,0,0,3,5.61,5.61,0,0,0,.34,1.37,3,3,0,0,0,.68,1,1.56,1.56,0,0,0,1.08.39,1.53,1.53,0,0,0,1.07-.39,2.79,2.79,0,0,0,.67-1,5.61,5.61,0,0,0,.36-1.37,11.23,11.23,0,0,0,0-3,5.77,5.77,0,0,0-.36-1.39,2.83,2.83,0,0,0-.67-1A1.54,1.54,0,0,0,360.73,171.1Z"/><path class="cls-28" d="M371.68,180.28h-6.24v-1l4-4c.15-.15.29-.31.44-.48a3.94,3.94,0,0,0,.38-.53,3,3,0,0,0,.26-.58,2.32,2.32,0,0,0,.1-.65,1.93,1.93,0,0,0-.16-.77,1.63,1.63,0,0,0-.42-.58,1.79,1.79,0,0,0-.62-.38,2.26,2.26,0,0,0-.74-.13,1.92,1.92,0,0,0-1.32.49,2.22,2.22,0,0,0-.69,1.25l-1-.19a2.69,2.69,0,0,1,.37-1,2.85,2.85,0,0,1,.66-.76,3.07,3.07,0,0,1,2-.68,3.81,3.81,0,0,1,1.13.17,3,3,0,0,1,.93.51,2.58,2.58,0,0,1,.63.85,2.64,2.64,0,0,1,.24,1.16,3,3,0,0,1-.13.87,4,4,0,0,1-.35.76,4.1,4.1,0,0,1-.5.68c-.19.22-.4.43-.61.64l-3.52,3.49h5.18Z"/><path class="cls-28" d="M379.68,180.28h-6.24v-1l4-4c.15-.15.3-.31.44-.48a3.94,3.94,0,0,0,.38-.53,2.51,2.51,0,0,0,.26-.58,2.32,2.32,0,0,0,.1-.65,1.77,1.77,0,0,0-.16-.77,1.63,1.63,0,0,0-.42-.58,1.79,1.79,0,0,0-.62-.38,2.26,2.26,0,0,0-.74-.13,1.92,1.92,0,0,0-1.32.49,2.22,2.22,0,0,0-.69,1.25l-1-.19a2.69,2.69,0,0,1,.37-1,2.85,2.85,0,0,1,.66-.76,3.07,3.07,0,0,1,2-.68,3.77,3.77,0,0,1,1.13.17,3,3,0,0,1,.93.51,2.58,2.58,0,0,1,.63.85,2.64,2.64,0,0,1,.24,1.16,2.73,2.73,0,0,1-.13.87,3.49,3.49,0,0,1-.35.76,4.1,4.1,0,0,1-.5.68c-.19.22-.4.43-.61.64l-3.52,3.49h5.18Z"/><path class="cls-28" d="M290.34,187l-3.08,9.79h-1.79l-1.85-7h0l-1.9,7h-1.79L276.83,187h2.06l1.91,6.62h0l1.75-6.62h2.05l1.73,6.62h0l1.91-6.62Z"/><path class="cls-28" d="M296.35,194.87H292.6l-.67,2h-2l3.62-9.79h1.87l3.64,9.79h-2Zm-.56-1.65-1.31-3.85h0l-1.3,3.85Z"/><path class="cls-28" d="M307.45,187l-3.62,9.79h-1.71L298.49,187h2.1l2.37,7h0l2.39-7Z"/><path class="cls-28" d="M308.8,187h6.26v1.73h-4.35v2.35h3.49v1.71h-3.49v2.27h4.64v1.73H308.8Z"/><path class="cls-28" d="M326.35,195.13v1.7h-6.19l0-1.23,2.95-3.11a8,8,0,0,0,1-1.19,2,2,0,0,0,.31-1,1.35,1.35,0,0,0-.17-.66,1.14,1.14,0,0,0-.44-.46,1.29,1.29,0,0,0-.65-.17,1.85,1.85,0,0,0-1.65,1l-1.35-1a3.39,3.39,0,0,1,3.14-1.79,3.33,3.33,0,0,1,1.14.2,3,3,0,0,1,1,.55,2.39,2.39,0,0,1,.66.89,2.71,2.71,0,0,1,.25,1.18,3.62,3.62,0,0,1-.34,1.54,6.62,6.62,0,0,1-1.23,1.64l-1.78,1.84v0Z"/><path class="cls-28" d="M334.29,196.58a4.63,4.63,0,0,1-1.58-1,4.4,4.4,0,0,1-1.06-1.57,6,6,0,0,1,0-4.09,4.7,4.7,0,0,1,1-1.6,4.3,4.3,0,0,1,1.55-1.05,5.24,5.24,0,0,1,2.05-.39,5.58,5.58,0,0,1,2.12.43,4.84,4.84,0,0,1,1.77,1.25l-1.37,1.16a3.52,3.52,0,0,0-2.52-1,2.85,2.85,0,0,0-1.13.22,2.76,2.76,0,0,0-1.54,1.64,3.81,3.81,0,0,0-.22,1.34,3.65,3.65,0,0,0,.36,1.63,2.74,2.74,0,0,0,1,1.15,2.93,2.93,0,0,0,1.57.42,3.7,3.7,0,0,0,2-.55v-1.44h-2.2v-1.67h4.07v4.22a5.1,5.1,0,0,1-1.71.88,7.05,7.05,0,0,1-2.15.33A5.55,5.55,0,0,1,334.29,196.58Z"/><path class="cls-28" d="M344.61,196.57a4.5,4.5,0,0,1-2.59-2.63,5.32,5.32,0,0,1-.37-2,5.23,5.23,0,0,1,.37-2,4.48,4.48,0,0,1,2.6-2.63,5.55,5.55,0,0,1,4,0,4.73,4.73,0,0,1,1.58,1,4.58,4.58,0,0,1,1,1.58,5.81,5.81,0,0,1,0,4.08,4.53,4.53,0,0,1-1,1.59,4.89,4.89,0,0,1-1.58,1,5.72,5.72,0,0,1-4,0Zm3.21-1.67a2.78,2.78,0,0,0,.95-.67,3.06,3.06,0,0,0,.62-1,3.63,3.63,0,0,0,.22-1.28,3.42,3.42,0,0,0-.39-1.64,2.87,2.87,0,0,0-2.57-1.56,2.94,2.94,0,0,0-1.55.43,2.89,2.89,0,0,0-1.06,1.16,3.47,3.47,0,0,0-.37,1.61,3.51,3.51,0,0,0,.37,1.62,2.89,2.89,0,0,0,1.06,1.16,3,3,0,0,0,2.72.19Z"/><path class="cls-28" d="M353,191.73h4.17v1.69H353Z"/><path class="cls-28" d="M358.91,187h1.93v8.06h4.36v1.73h-6.29Z"/><path class="cls-28" d="M366.77,187h2v9.79h-2Z"/><path class="cls-28" d="M379.14,187l-3.62,9.79h-1.71L370.18,187h2.1l2.36,7h0l2.39-7Z"/><path class="cls-28" d="M380.49,187h6.26v1.73H382.4v2.35h3.48v1.71H382.4v2.27H387v1.73h-6.55Z"/><text class="cls-33" transform="translate(281.31 232.91)">Plants<tspan class="cls-24" x="38.54" y="0"> </tspan><tspan x="41.74" y="0">A</tspan><tspan class="cls-30" x="51.48" y="0">f</tspan><tspan x="55.66" y="0">fected:</tspan><tspan class="cls-34"><tspan x="10.51" y="16.55">Hagerstown</tspan><tspan class="cls-35" x="86.59" y="16.55">,</tspan><tspan class="cls-17" x="13.08" y="33.11">K</tspan><tspan x="21.58" y="33.11">ansas Cit</tspan><tspan class="cls-36" x="77.78" y="33.11">y</tspan><tspan class="cls-35" x="84.01" y="33.11">,</tspan><tspan x="24.88" y="49.66">Phoenix</tspan></tspan></text><path class="cls-28" d="M425.66,209.75H549.5a0,0,0,0,1,0,0v92.3a11.08,11.08,0,0,1-11.08,11.08H436.26a11.08,11.08,0,0,1-11.08-11.08V210.23A.48.48,0,0,1,425.66,209.75Z"/><path class="cls-28" d="M450.23,170.51h.94l4.11,9.77h-1l-1.06-2.6H448l-1.1,2.6H446Zm.43,1-2.28,5.35h4.49Z"/><path class="cls-28" d="M456.27,173.9h.83V175h0a2.21,2.21,0,0,1,.48-.57,2.59,2.59,0,0,1,.63-.4,2.83,2.83,0,0,1,.71-.24,3.68,3.68,0,0,1,.73-.07A3.49,3.49,0,0,1,461,174a3,3,0,0,1,1.06.69,3.32,3.32,0,0,1,.7,1.06,3.68,3.68,0,0,1,.24,1.35,3.63,3.63,0,0,1-.24,1.34,3.26,3.26,0,0,1-.7,1.07,3,3,0,0,1-1.06.69,3.49,3.49,0,0,1-1.35.25,3.68,3.68,0,0,1-.73-.07,3.3,3.3,0,0,1-.71-.24,2.59,2.59,0,0,1-.63-.4,2.21,2.21,0,0,1-.48-.57h0v4.26h-.83Zm.75,3.19a2.44,2.44,0,0,0,.21,1,2.39,2.39,0,0,0,.56.83,2.69,2.69,0,0,0,.84.56,2.59,2.59,0,0,0,1.05.21,2.52,2.52,0,0,0,1.05-.21,2.41,2.41,0,0,0,.8-.56,2.25,2.25,0,0,0,.5-.83,2.92,2.92,0,0,0,0-2,2.25,2.25,0,0,0-.5-.83,2.41,2.41,0,0,0-.8-.56,2.52,2.52,0,0,0-1.05-.21,2.59,2.59,0,0,0-1.05.21,2.69,2.69,0,0,0-.84.56,2.39,2.39,0,0,0-.56.83A2.44,2.44,0,0,0,457,177.09Z"/><path class="cls-28" d="M464.88,175.7c0-.12,0-.27,0-.44s0-.34,0-.52,0-.33,0-.49,0-.26,0-.35h.83c0,.24,0,.47,0,.69a2.32,2.32,0,0,0,0,.43,2.78,2.78,0,0,1,.81-.92,2,2,0,0,1,1.21-.36.9.9,0,0,1,.24,0l.25.05-.1.81a1,1,0,0,0-.32-.06,2.2,2.2,0,0,0-.93.18,1.73,1.73,0,0,0-.65.47,2.21,2.21,0,0,0-.38.71,3.12,3.12,0,0,0-.12.88v3.48h-.83Z"/><path class="cls-28" d="M469.41,171.38a.61.61,0,0,1,.62-.62.6.6,0,0,1,.44.18.59.59,0,0,1,.18.44.61.61,0,0,1-.62.62.59.59,0,0,1-.44-.18A.6.6,0,0,1,469.41,171.38Zm.2,2.52h.83v6.38h-.83Z"/><path class="cls-28" d="M472.92,169.85h.83v10.43h-.83Z"/><path class="cls-28" d="M479.15,179.31l3.67-3.88c.16-.16.33-.34.49-.53a4.19,4.19,0,0,0,.45-.59,3.35,3.35,0,0,0,.32-.66,2,2,0,0,0,.13-.74,1.71,1.71,0,0,0-.55-1.34,2.07,2.07,0,0,0-1.4-.48,2,2,0,0,0-1.28.44,2,2,0,0,0-.68,1.16l-1-.1a2.63,2.63,0,0,1,1-1.69,3.33,3.33,0,0,1,1.93-.56,3.22,3.22,0,0,1,1.08.18,2.62,2.62,0,0,1,.9.49,2.35,2.35,0,0,1,.61.78,2.32,2.32,0,0,1,.23,1.05,3.21,3.21,0,0,1-.17,1,4.65,4.65,0,0,1-.46.92,5.57,5.57,0,0,1-.65.82l-.74.77-3,3.13h5.13v.75h-6Z"/><path class="cls-28" d="M492,171.25h-4l0,3.11a2,2,0,0,1,.69-.22,4.71,4.71,0,0,1,.74-.06,3,3,0,0,1,1.26.26,2.91,2.91,0,0,1,1,.69,3.43,3.43,0,0,1,.61,1,3.69,3.69,0,0,1,.21,1.25,3.18,3.18,0,0,1-.28,1.38,3,3,0,0,1-.74,1,3.09,3.09,0,0,1-1,.58,3.25,3.25,0,0,1-1.09.19,3.48,3.48,0,0,1-1.8-.44,3,3,0,0,1-1.12-1.21l.85-.43a2.45,2.45,0,0,0,.34.52,2.47,2.47,0,0,0,.49.42,2.31,2.31,0,0,0,.59.29,2.11,2.11,0,0,0,.65.11,2,2,0,0,0,.72-.15,2.22,2.22,0,0,0,.72-.43,2.55,2.55,0,0,0,.55-.73,2.26,2.26,0,0,0,.22-1,2.52,2.52,0,0,0-.19-1,2.42,2.42,0,0,0-.51-.81A2.37,2.37,0,0,0,490,175a2.28,2.28,0,0,0-1-.2,3,3,0,0,0-1,.18,4.63,4.63,0,0,0-.91.48l.08-5H492Z"/><path class="cls-28" d="M494.53,179h1l-1.06,3.15h-.81Z"/><path class="cls-28" d="M500.67,179.31l3.66-3.88a6.36,6.36,0,0,0,.5-.53,4.19,4.19,0,0,0,.45-.59,3.35,3.35,0,0,0,.32-.66,2,2,0,0,0,.13-.74,1.71,1.71,0,0,0-.55-1.34,2.07,2.07,0,0,0-1.4-.48,2,2,0,0,0-1.28.44,2,2,0,0,0-.68,1.16l-1-.1a2.59,2.59,0,0,1,1-1.69,3.33,3.33,0,0,1,1.93-.56,3.22,3.22,0,0,1,1.08.18,2.62,2.62,0,0,1,.9.49,2.35,2.35,0,0,1,.61.78,2.32,2.32,0,0,1,.23,1.05,3.21,3.21,0,0,1-.17,1,4.65,4.65,0,0,1-.46.92,5.57,5.57,0,0,1-.65.82l-.74.77-3,3.13h5.13v.75h-6Z"/><path class="cls-28" d="M507.63,175.39c0-.35,0-.72.05-1.11a7.13,7.13,0,0,1,.18-1.14,6.41,6.41,0,0,1,.36-1.07,3.13,3.13,0,0,1,.58-.88,2.6,2.6,0,0,1,.87-.62,3.19,3.19,0,0,1,2.38,0,2.56,2.56,0,0,1,.86.62,3.16,3.16,0,0,1,.59.88,6.41,6.41,0,0,1,.36,1.07,7.13,7.13,0,0,1,.18,1.14c0,.39.05.76.05,1.11s0,.73-.05,1.12a7.13,7.13,0,0,1-.18,1.14,6.3,6.3,0,0,1-.36,1.06,3.21,3.21,0,0,1-.59.89,2.54,2.54,0,0,1-.86.61,3.19,3.19,0,0,1-2.38,0,2.58,2.58,0,0,1-.87-.61,3.18,3.18,0,0,1-.58-.89,6.3,6.3,0,0,1-.36-1.06,7.13,7.13,0,0,1-.18-1.14C507.65,176.12,507.63,175.75,507.63,175.39Zm.91,0c0,.26,0,.54,0,.85a7.75,7.75,0,0,0,.11.94,5.77,5.77,0,0,0,.24.93,3.42,3.42,0,0,0,.41.81,2,2,0,0,0,.63.56,1.93,1.93,0,0,0,1.79,0,2,2,0,0,0,.63-.56,3.44,3.44,0,0,0,.42-.81,7,7,0,0,0,.24-.93c.05-.32.09-.63.11-.94s0-.59,0-.85,0-.53,0-.84-.06-.63-.11-.94a7,7,0,0,0-.24-.93,3.09,3.09,0,0,0-.42-.81,1.91,1.91,0,0,0-.63-.57,2,2,0,0,0-1.78,0,1.94,1.94,0,0,0-.64.57,3.08,3.08,0,0,0-.41.81,5.77,5.77,0,0,0-.24.93,7.52,7.52,0,0,0-.11.94Q508.54,175,508.54,175.39Z"/><path class="cls-28" d="M515,179.31l3.67-3.88c.17-.16.33-.34.5-.53a5,5,0,0,0,.44-.59,2.91,2.91,0,0,0,.33-.66,2.21,2.21,0,0,0,.12-.74,1.68,1.68,0,0,0-.55-1.34,2,2,0,0,0-1.39-.48,1.93,1.93,0,0,0-1.28.44,2,2,0,0,0-.68,1.16l-1-.1a2.64,2.64,0,0,1,1-1.69,3.3,3.3,0,0,1,1.93-.56,3.22,3.22,0,0,1,1.08.18,2.57,2.57,0,0,1,.89.49,2.38,2.38,0,0,1,.62.78,2.32,2.32,0,0,1,.22,1.05,3,3,0,0,1-.17,1,4.61,4.61,0,0,1-.45.92,6.32,6.32,0,0,1-.65.82c-.25.25-.49.51-.74.77l-3.05,3.13h5.13v.75h-6Z"/><path class="cls-28" d="M522.18,179.31l3.67-3.88c.17-.16.33-.34.5-.53a4.19,4.19,0,0,0,.45-.59,3.35,3.35,0,0,0,.32-.66,2,2,0,0,0,.13-.74,1.69,1.69,0,0,0-.56-1.34,2,2,0,0,0-1.39-.48,2,2,0,0,0-1.28.44,2,2,0,0,0-.68,1.16l-1-.1a2.59,2.59,0,0,1,1-1.69,3.3,3.3,0,0,1,1.93-.56,3.22,3.22,0,0,1,1.08.18,2.62,2.62,0,0,1,.9.49,2.35,2.35,0,0,1,.61.78,2.32,2.32,0,0,1,.23,1.05,3,3,0,0,1-.18,1,4.13,4.13,0,0,1-.45.92,6.32,6.32,0,0,1-.65.82l-.74.77-3,3.13h5.14v.75h-6.05Z"/><path class="cls-28" d="M445.53,187l-3.08,9.79h-1.8l-1.85-7h0l-1.9,7h-1.79L432,187h2.06l1.91,6.62h0l1.75-6.62h2.05l1.73,6.62h0l1.9-6.62Z"/><path class="cls-28" d="M451.54,194.87h-3.76l-.67,2h-2l3.63-9.79h1.87l3.64,9.79h-2Zm-.57-1.65-1.31-3.85h0l-1.3,3.85Z"/><path class="cls-28" d="M462.63,187,459,196.83H457.3L453.67,187h2.1l2.37,7h0l2.39-7Z"/><path class="cls-28" d="M464,187h6.26v1.73h-4.35v2.35h3.49v1.71h-3.49v2.27h4.64v1.73H464Z"/><path class="cls-28" d="M481.29,192.86a2.47,2.47,0,0,1,.39,1.4,2.43,2.43,0,0,1-.41,1.41,2.71,2.71,0,0,1-1.14.94,3.94,3.94,0,0,1-1.64.33,3.9,3.9,0,0,1-2.13-.57,3.12,3.12,0,0,1-1.26-1.51l1.62-.67a1.59,1.59,0,0,0,1.64,1.07,1.48,1.48,0,0,0,1-.35,1.14,1.14,0,0,0,.41-.91,1.16,1.16,0,0,0-.41-.91,1.67,1.67,0,0,0-1.15-.36h-.68v-1.52h.83a1.23,1.23,0,0,0,.92-.31,1.13,1.13,0,0,0,.31-.81,1,1,0,0,0-.36-.82,1.27,1.27,0,0,0-.89-.33,1.49,1.49,0,0,0-1.38.8l-1.5-.8a2.61,2.61,0,0,1,1.11-1.22,3.46,3.46,0,0,1,1.81-.47,4.17,4.17,0,0,1,1.19.17,2.9,2.9,0,0,1,1,.49,2.23,2.23,0,0,1,.65.8,2.37,2.37,0,0,1,.24,1.07,2.46,2.46,0,0,1-.32,1.24,2.56,2.56,0,0,1-.9.89v0A2.62,2.62,0,0,1,481.29,192.86Z"/><path class="cls-28" d="M489.65,196.58a4.58,4.58,0,0,1-1.59-1,4.4,4.4,0,0,1-1.06-1.57,5.65,5.65,0,0,1-.38-2.1,5.85,5.85,0,0,1,.34-2,4.7,4.7,0,0,1,1-1.6,4.3,4.3,0,0,1,1.55-1.05,5.24,5.24,0,0,1,2-.39,5.58,5.58,0,0,1,2.12.43,4.84,4.84,0,0,1,1.77,1.25l-1.37,1.16a3.52,3.52,0,0,0-2.52-1,2.85,2.85,0,0,0-1.13.22,2.9,2.9,0,0,0-.92.63,2.73,2.73,0,0,0-.61,1,3.59,3.59,0,0,0-.23,1.34,3.65,3.65,0,0,0,.36,1.63,2.74,2.74,0,0,0,1,1.15,2.93,2.93,0,0,0,1.57.42,3.7,3.7,0,0,0,2-.55v-1.44h-2.2v-1.67h4.07v4.22a5.1,5.1,0,0,1-1.71.88,7.05,7.05,0,0,1-2.15.33A5.46,5.46,0,0,1,489.65,196.58Z"/><path class="cls-28" d="M500,196.57a4.5,4.5,0,0,1-2.59-2.63,5.32,5.32,0,0,1-.37-2,5.23,5.23,0,0,1,.37-2,4.48,4.48,0,0,1,2.6-2.63,5.55,5.55,0,0,1,4,0,4.73,4.73,0,0,1,1.58,1,4.58,4.58,0,0,1,1,1.58,5.81,5.81,0,0,1,0,4.08,4.53,4.53,0,0,1-1,1.59,4.89,4.89,0,0,1-1.58,1,5.72,5.72,0,0,1-4,0Zm3.21-1.67a2.78,2.78,0,0,0,.95-.67,3.06,3.06,0,0,0,.62-1,3.63,3.63,0,0,0,.22-1.28,3.42,3.42,0,0,0-.39-1.64,2.87,2.87,0,0,0-2.57-1.56,2.88,2.88,0,0,0-2.61,1.59,3.47,3.47,0,0,0-.37,1.61,3.51,3.51,0,0,0,.37,1.62,3,3,0,0,0,1.06,1.16,3,3,0,0,0,2.72.19Z"/><path class="cls-28" d="M508.33,191.73h4.17v1.69h-4.17Z"/><path class="cls-28" d="M514.26,187h1.94v8.06h4.35v1.73h-6.29Z"/><path class="cls-28" d="M522.12,187h2v9.79h-2Z"/><path class="cls-28" d="M534.49,187l-3.62,9.79h-1.71L525.53,187h2.1l2.36,7h0l2.4-7Z"/><path class="cls-28" d="M535.84,187h6.26v1.73h-4.35v2.35h3.48v1.71h-3.48v2.27h4.63v1.73h-6.54Z"/><text class="cls-37" transform="translate(436.58 232.91)">Plants<tspan class="cls-24" x="38.54" y="0"> </tspan><tspan x="41.74" y="0">A</tspan><tspan class="cls-30" x="51.48" y="0">f</tspan><tspan x="55.66" y="0">fected:</tspan><tspan class="cls-34"><tspan x="-5.02" y="16.55">Alban</tspan><tspan class="cls-38" x="32.28" y="16.55">y</tspan><tspan class="cls-35" x="38.51" y="16.55">,</tspan><tspan x="41.69" y="16.55" xml:space="preserve"> B</tspan><tspan class="cls-24" x="53.91" y="16.55">r</tspan><tspan x="58.63" y="16.55">enham</tspan><tspan class="cls-35" x="102.12" y="16.55">,</tspan><tspan x="105.29" y="16.55"></tspan><tspan x="-3.7" y="33.11">Denve</tspan><tspan class="cls-39" x="37.27" y="33.11">r</tspan><tspan class="cls-35" x="41.58" y="33.11">,</tspan><tspan x="44.75" y="33.11" xml:space="preserve"> Orland</tspan><tspan class="cls-17" x="92.53" y="33.11">o</tspan><tspan class="cls-35" x="100.8" y="33.11">,</tspan><tspan x="19.57" y="49.66">Plainfield</tspan><tspan class="cls-35" x="77.53" y="49.66">,</tspan><tspan x="80.7" y="49.66" xml:space="preserve"> </tspan><tspan x="18.1" y="66.21">Richmond</tspan></tspan></text><path class="cls-28" d="M580.93,209.75H704.77a0,0,0,0,1,0,0v92.3a11.08,11.08,0,0,1-11.08,11.08H591.53a11.08,11.08,0,0,1-11.08-11.08V210.23a.48.48,0,0,1,.48-.48Z"/><path class="cls-28" d="M606.54,178.59h0l3.27-8.08h1.52v9.77h-1v-8.49h0l-3.53,8.49h-.53l-3.53-8.49h0v8.49h-1v-9.77h1.52Z"/><path class="cls-28" d="M617.94,176.1a1.62,1.62,0,0,0-.44-1.25,1.82,1.82,0,0,0-1.28-.41,2.77,2.77,0,0,0-1.08.21,2.61,2.61,0,0,0-.84.55l-.52-.62a3,3,0,0,1,1.05-.66,3.92,3.92,0,0,1,1.49-.27,3.14,3.14,0,0,1,1,.15,2.47,2.47,0,0,1,.8.43,1.9,1.9,0,0,1,.53.74,2.49,2.49,0,0,1,.2,1v2.83c0,.25,0,.5,0,.77a4,4,0,0,0,.08.68h-.84c0-.16-.05-.33-.07-.51a5.17,5.17,0,0,1,0-.54h0a2.73,2.73,0,0,1-1,.93,2.91,2.91,0,0,1-1.34.28,3,3,0,0,1-.77-.1,2.16,2.16,0,0,1-.72-.34,2,2,0,0,1-.53-.61,1.73,1.73,0,0,1-.22-.91,1.77,1.77,0,0,1,.38-1.19,2.31,2.31,0,0,1,1-.65,5.94,5.94,0,0,1,1.45-.27c.55-.05,1.12-.07,1.7-.07Zm-.27,1a11.45,11.45,0,0,0-1.17,0,4.77,4.77,0,0,0-1.06.19,2.07,2.07,0,0,0-.78.42.94.94,0,0,0-.3.73,1.16,1.16,0,0,0,.13.58,1.07,1.07,0,0,0,.35.38,1.43,1.43,0,0,0,.49.21,2.51,2.51,0,0,0,.55.06,2.23,2.23,0,0,0,.88-.17,1.94,1.94,0,0,0,.65-.47,2.22,2.22,0,0,0,.53-1.5v-.48Z"/><path class="cls-28" d="M623.46,179.27h0l2-5.45h1l-3.21,8.12a3.51,3.51,0,0,1-.74,1.2,1.75,1.75,0,0,1-1.29.45,3.86,3.86,0,0,1-.84-.09l.09-.85a2.31,2.31,0,0,0,.69.11,1,1,0,0,0,.76-.3,2.51,2.51,0,0,0,.49-.85l.52-1.35-2.76-6.44h1Z"/><path class="cls-28" d="M637.12,180.28h-6.24v-1l4-4c.15-.15.3-.31.44-.48a3.94,3.94,0,0,0,.38-.53,2.51,2.51,0,0,0,.26-.58,2.32,2.32,0,0,0,.1-.65,1.77,1.77,0,0,0-.16-.77,1.63,1.63,0,0,0-.42-.58,1.79,1.79,0,0,0-.62-.38,2.26,2.26,0,0,0-.74-.13,1.92,1.92,0,0,0-1.32.49,2.22,2.22,0,0,0-.69,1.25l-1-.19a2.89,2.89,0,0,1,.37-1,2.85,2.85,0,0,1,.66-.76,3.07,3.07,0,0,1,2-.68,3.77,3.77,0,0,1,1.13.17,3,3,0,0,1,.93.51,2.58,2.58,0,0,1,.63.85,2.64,2.64,0,0,1,.24,1.16,2.73,2.73,0,0,1-.13.87,3.49,3.49,0,0,1-.35.76,4.1,4.1,0,0,1-.5.68c-.19.22-.4.43-.61.64L632,179.39h5.17Z"/><path class="cls-28" d="M641.13,174.73h.43a3.54,3.54,0,0,0,.88-.1,1.92,1.92,0,0,0,.73-.31,1.62,1.62,0,0,0,.49-.55,1.81,1.81,0,0,0,.18-.83,1.65,1.65,0,0,0-.16-.75,1.63,1.63,0,0,0-.42-.58,1.79,1.79,0,0,0-.62-.38,2.24,2.24,0,0,0-.73-.13,2.1,2.1,0,0,0-1.1.29,2.16,2.16,0,0,0-.77.86l-.84-.44a2.9,2.9,0,0,1,1.16-1.17,3.35,3.35,0,0,1,1.6-.38,3.62,3.62,0,0,1,1.1.17,2.89,2.89,0,0,1,.91.51,2.23,2.23,0,0,1,.63.82,2.63,2.63,0,0,1,.23,1.12,2.23,2.23,0,0,1-.48,1.46,2.35,2.35,0,0,1-1.22.78v0a2.52,2.52,0,0,1,1.4.81,2.32,2.32,0,0,1,.56,1.62,2.91,2.91,0,0,1-.25,1.25,2.75,2.75,0,0,1-.69.92,2.69,2.69,0,0,1-1,.58,3.71,3.71,0,0,1-3.08-.31,3.21,3.21,0,0,1-1.21-1.49l.93-.34a2.25,2.25,0,0,0,.83,1.1,2.34,2.34,0,0,0,1.33.39,2.22,2.22,0,0,0,.8-.15,1.84,1.84,0,0,0,.69-.41,2,2,0,0,0,.48-.66,2,2,0,0,0,.18-.88,1.78,1.78,0,0,0-.22-.93,1.67,1.67,0,0,0-.57-.61,2.44,2.44,0,0,0-.81-.34,4.17,4.17,0,0,0-.94-.1h-.43Z"/><path class="cls-28" d="M647.59,182.21h-.79l.93-3.24h1Z"/><path class="cls-28" d="M659.74,180.28h-6.23v-1l4-4c.14-.15.29-.31.43-.48a3.94,3.94,0,0,0,.38-.53,2.51,2.51,0,0,0,.26-.58,2,2,0,0,0,.1-.65,1.92,1.92,0,0,0-.15-.77,1.63,1.63,0,0,0-.42-.58,1.89,1.89,0,0,0-.62-.38,2.35,2.35,0,0,0-.74-.13,1.93,1.93,0,0,0-1.33.49,2.28,2.28,0,0,0-.69,1.25l-1-.19a2.89,2.89,0,0,1,.37-1,2.85,2.85,0,0,1,.66-.76,3.1,3.1,0,0,1,.89-.5,3.14,3.14,0,0,1,1.08-.18,3.75,3.75,0,0,1,1.12.17,2.79,2.79,0,0,1,.93.51,2.45,2.45,0,0,1,.63.85,2.64,2.64,0,0,1,.24,1.16,2.73,2.73,0,0,1-.13.87,4,4,0,0,1-.34.76,4.16,4.16,0,0,1-.51.68c-.19.22-.39.43-.6.64l-3.52,3.49h5.17Z"/><path class="cls-28" d="M664.8,170.26a2.51,2.51,0,0,1,1.52.45,3.3,3.3,0,0,1,1,1.17,5.42,5.42,0,0,1,.53,1.65,11.07,11.07,0,0,1,0,3.75,5.54,5.54,0,0,1-.53,1.64,3.18,3.18,0,0,1-1,1.16,2.88,2.88,0,0,1-3.06,0,3.18,3.18,0,0,1-1-1.16,5.85,5.85,0,0,1-.53-1.64,11.79,11.79,0,0,1,0-3.75,5.71,5.71,0,0,1,.53-1.65,3.3,3.3,0,0,1,1-1.17A2.53,2.53,0,0,1,664.8,170.26Zm0,.84a1.53,1.53,0,0,0-1.08.4,2.85,2.85,0,0,0-.68,1,5.77,5.77,0,0,0-.35,1.39,12.46,12.46,0,0,0,0,3,5.61,5.61,0,0,0,.35,1.37,2.81,2.81,0,0,0,.68,1,1.52,1.52,0,0,0,1.08.39,1.51,1.51,0,0,0,1.06-.39,2.81,2.81,0,0,0,.68-1,5.61,5.61,0,0,0,.35-1.37,10.21,10.21,0,0,0,0-3,5.77,5.77,0,0,0-.35-1.39,2.85,2.85,0,0,0-.68-1A1.52,1.52,0,0,0,664.8,171.1Z"/><path class="cls-28" d="M675.74,180.28h-6.23v-1l4-4c.15-.15.29-.31.43-.48a3.22,3.22,0,0,0,.38-.53,2.51,2.51,0,0,0,.26-.58,2,2,0,0,0,.1-.65,1.92,1.92,0,0,0-.15-.77,1.63,1.63,0,0,0-.42-.58,1.89,1.89,0,0,0-.62-.38,2.3,2.3,0,0,0-.74-.13,1.91,1.91,0,0,0-1.32.49,2.22,2.22,0,0,0-.69,1.25l-1-.19a2.67,2.67,0,0,1,.36-1,2.85,2.85,0,0,1,.66-.76,3.24,3.24,0,0,1,.89-.5,3.14,3.14,0,0,1,1.08-.18,3.7,3.7,0,0,1,1.12.17,2.79,2.79,0,0,1,.93.51,2.48,2.48,0,0,1,.64.85,2.79,2.79,0,0,1,.23,1.16,2.73,2.73,0,0,1-.13.87,3.46,3.46,0,0,1-.34.76,4.1,4.1,0,0,1-.5.68c-.2.22-.4.43-.61.64l-3.52,3.49h5.17Z"/><path class="cls-28" d="M683.74,180.28h-6.23v-1l4-4c.15-.15.29-.31.43-.48a3.22,3.22,0,0,0,.38-.53,3.06,3.06,0,0,0,.27-.58,2.32,2.32,0,0,0,.09-.65,1.92,1.92,0,0,0-.15-.77,1.63,1.63,0,0,0-.42-.58,1.89,1.89,0,0,0-.62-.38,2.3,2.3,0,0,0-.74-.13,1.92,1.92,0,0,0-1.32.49,2.22,2.22,0,0,0-.69,1.25l-1-.19a2.67,2.67,0,0,1,.36-1,2.72,2.72,0,0,1,.67-.76,3,3,0,0,1,.88-.5,3.18,3.18,0,0,1,1.08-.18,3.7,3.7,0,0,1,1.12.17,2.79,2.79,0,0,1,.93.51,2.48,2.48,0,0,1,.64.85,2.64,2.64,0,0,1,.24,1.16,2.74,2.74,0,0,1-.14.87,3.46,3.46,0,0,1-.34.76,4.1,4.1,0,0,1-.5.68c-.2.22-.4.43-.61.64l-3.52,3.49h5.17Z"/><path class="cls-28" d="M600.58,187l-3.08,9.79h-1.8l-1.84-7h0l-1.91,7h-1.79L587.06,187h2.07l1.9,6.62h0L592.8,187h2.05l1.73,6.62h0l1.9-6.62Z"/><path class="cls-28" d="M606.59,194.87h-3.76l-.66,2h-2l3.63-9.79h1.87l3.64,9.79h-2Zm-.57-1.65-1.31-3.85h0l-1.31,3.85Z"/><path class="cls-28" d="M617.68,187l-3.62,9.79h-1.7L608.72,187h2.1l2.37,7h0l2.4-7Z"/><path class="cls-28" d="M619,187h6.26v1.73h-4.35v2.35h3.49v1.71h-3.49v2.27h4.64v1.73H619Z"/><path class="cls-28" d="M634.23,195.28h-4v-1.19l4.35-6.72h1.5v6.31h1.28v1.6h-1.28v1.55h-1.83Zm.12-1.51v-3.39l-2.1,3.39Z"/><path class="cls-28" d="M645.12,196.58a4.53,4.53,0,0,1-1.58-1,4.4,4.4,0,0,1-1.06-1.57,5.45,5.45,0,0,1-.38-2.1,5.62,5.62,0,0,1,.34-2,4.7,4.7,0,0,1,1-1.6,4.3,4.3,0,0,1,1.55-1.05,5.24,5.24,0,0,1,2-.39,5.62,5.62,0,0,1,2.12.43,4.84,4.84,0,0,1,1.77,1.25l-1.37,1.16a3.52,3.52,0,0,0-2.52-1,2.85,2.85,0,0,0-1.13.22,2.79,2.79,0,0,0-.92.63,2.75,2.75,0,0,0-.62,1,3.81,3.81,0,0,0-.22,1.34,3.64,3.64,0,0,0,.35,1.63,2.88,2.88,0,0,0,1,1.15,3,3,0,0,0,1.58.42,3.7,3.7,0,0,0,2-.55v-1.44h-2.21v-1.67H651v4.22a5.25,5.25,0,0,1-1.72.88,7,7,0,0,1-2.14.33A5.55,5.55,0,0,1,645.12,196.58Z"/><path class="cls-28" d="M655.44,196.57a4.58,4.58,0,0,1-1.58-1,4.83,4.83,0,0,1-1-1.59,5.52,5.52,0,0,1-.36-2,5.43,5.43,0,0,1,.36-2,4.83,4.83,0,0,1,1-1.59,4.58,4.58,0,0,1,1.58-1,5.57,5.57,0,0,1,4,0,4.73,4.73,0,0,1,1.58,1,4.56,4.56,0,0,1,1,1.58,5.67,5.67,0,0,1,0,4.08,4.51,4.51,0,0,1-1,1.59,4.89,4.89,0,0,1-1.58,1,5.72,5.72,0,0,1-4,0Zm3.21-1.67a2.65,2.65,0,0,0,.94-.67,2.91,2.91,0,0,0,.62-1,3.63,3.63,0,0,0,.23-1.28,3.42,3.42,0,0,0-.39-1.64,2.85,2.85,0,0,0-1.06-1.14,2.82,2.82,0,0,0-1.51-.42,2.88,2.88,0,0,0-2.61,1.59,3.47,3.47,0,0,0-.37,1.61,3.51,3.51,0,0,0,.37,1.62,2.89,2.89,0,0,0,1.06,1.16,2.83,2.83,0,0,0,1.55.43A2.88,2.88,0,0,0,658.65,194.9Z"/><path class="cls-28" d="M663.81,191.73H668v1.69h-4.17Z"/><path class="cls-28" d="M669.73,187h1.94v8.06H676v1.73h-6.29Z"/><path class="cls-28" d="M677.6,187h1.95v9.79H677.6Z"/><path class="cls-28" d="M690,187l-3.62,9.79h-1.71L681,187h2.1l2.37,7h0l2.4-7Z"/><path class="cls-28" d="M691.31,187h6.26v1.73h-4.34v2.35h3.48v1.71h-3.48v2.27h4.63v1.73h-6.55Z"/><text class="cls-40" transform="translate(591.84 232.91)">Plants<tspan class="cls-24" x="38.54" y="0"> </tspan><tspan x="41.74" y="0">A</tspan><tspan class="cls-30" x="51.48" y="0">f</tspan><tspan x="55.66" y="0">fected:</tspan><tspan class="cls-34"><tspan x="3.8" y="16.55">Atlanta</tspan><tspan class="cls-35" x="48.43" y="16.55">,</tspan><tspan x="51.6" y="16.55" xml:space="preserve"> Dallas</tspan><tspan class="cls-35" x="93.3" y="16.55">,</tspan><tspan class="cls-41" x="96.47" y="16.55"></tspan><tspan x="30.84" y="33.11">Lace</tspan><tspan class="cls-38" x="60.03" y="33.11">y</tspan><tspan class="cls-35" x="66.26" y="33.11">,</tspan><tspan x="69.43" y="33.11" xml:space="preserve"> </tspan><tspan class="cls-24" x="10.39" y="49.66">L</tspan><tspan x="17.18" y="49.66">os</tspan><tspan class="cls-24" x="31.73" y="49.66"> </tspan><tspan x="34.93" y="49.66">Angeles</tspan><tspan class="cls-35" x="86.71" y="49.66">,</tspan><tspan x="89.88" y="49.66"></tspan><tspan x="6.75" y="66.21">Medina</tspan><tspan class="cls-35" x="54.47" y="66.21">,</tspan><tspan x="57.65" y="66.21"> </tspan><tspan class="cls-17" x="61.09" y="66.21">R</tspan><tspan x="69.19" y="66.21">eno</tspan></tspan></text></svg>