<svg id="Layer_1" data-name="Layer 1" xmlns="http://www.w3.org/2000/svg" xmlns:xlink="http://www.w3.org/1999/xlink" viewBox="0 0 814 319.04"><defs><style>.cls-1,.cls-13,.cls-14,.cls-15,.cls-16,.cls-4,.cls-6,.cls-8{fill:none;}.cls-2{opacity:0.2;}.cls-3{clip-path:url(#clip-path);}.cls-4,.cls-6,.cls-8{stroke:#194e90;}.cls-13,.cls-14,.cls-15,.cls-16,.cls-4,.cls-6,.cls-8{stroke-miterlimit:10;}.cls-21,.cls-26,.cls-5{fill:#194e90;}.cls-6{stroke-linecap:round;}.cls-13,.cls-14,.cls-15,.cls-16,.cls-6,.cls-8{stroke-width:3px;}.cls-40,.cls-44,.cls-7{fill:#3072b9;}.cls-47,.cls-48,.cls-9{fill:#36b14b;}.cls-10,.cls-50,.cls-51{fill:#f7c21a;}.cls-11,.cls-56,.cls-58,.cls-61{fill:#6f3c97;}.cls-12,.cls-17,.cls-18,.cls-37{fill:#fff;}.cls-13{stroke:#3072b9;}.cls-14{stroke:#36b14b;}.cls-15{stroke:#f7c21a;}.cls-16{stroke:#6f3c97;}.cls-17,.cls-21{font-size:18.04px;}.cls-17,.cls-21,.cls-40,.cls-47,.cls-50,.cls-56{font-family:AvenirNext-DemiBold, Avenir Next;font-weight:300;}.cls-18,.cls-26,.cls-37,.cls-40,.cls-44,.cls-47,.cls-48,.cls-50,.cls-51,.cls-56,.cls-58,.cls-61{font-size:13.79px;}.cls-18,.cls-26,.cls-48,.cls-51,.cls-58,.cls-61{font-family:AvenirNext-Regular, Avenir Next;}.cls-19{letter-spacing:-0.01em;}.cls-20{letter-spacing:-0.01em;}.cls-22{letter-spacing:-0.06em;}.cls-23{letter-spacing:0em;}.cls-24{letter-spacing:-0.04em;}.cls-25{letter-spacing:-0.02em;}.cls-27{letter-spacing:-0.01em;}.cls-28{letter-spacing:-0.02em;}.cls-29{letter-spacing:-0.01em;}.cls-30{letter-spacing:-0.02em;}.cls-31{letter-spacing:-0.02em;}.cls-32{letter-spacing:0em;}.cls-33{letter-spacing:-0.01em;}.cls-34{letter-spacing:-0.03em;}.cls-35{letter-spacing:0em;}.cls-36{letter-spacing:-0.03em;}.cls-37,.cls-44{font-family:MyriadPro-Regular, Myriad Pro;}.cls-38{letter-spacing:-0.01em;}.cls-39{letter-spacing:-0.03em;}.cls-41,.cls-61{letter-spacing:-0.02em;}.cls-42{letter-spacing:0em;}.cls-43{letter-spacing:-0.02em;}.cls-45{letter-spacing:-0.06em;}.cls-46{letter-spacing:0em;}.cls-49{letter-spacing:-0.04em;}.cls-52{letter-spacing:-0.03em;}.cls-53{letter-spacing:-0.03em;}.cls-54{letter-spacing:-0.05em;}.cls-55{letter-spacing:-0.03em;}.cls-57{letter-spacing:-0.02em;}.cls-59{letter-spacing:0em;}.cls-60{letter-spacing:-0.04em;}</style><clipPath id="clip-path"><rect class="cls-1" x="10.87" y="128.35" width="790.79" height="1"/></clipPath></defs><title>timeline</title><g class="cls-2"><g class="cls-3"><line class="cls-4" x1="10.87" y1="128.85" x2="801.65" y2="128.85"/></g></g><path class="cls-5" d="M27.14,128.85A12.82,12.82,0,1,1,14.32,116a12.81,12.81,0,0,1,12.82,12.82"/><path class="cls-5" d="M812.5,128.85A12.82,12.82,0,1,1,799.68,116a12.81,12.81,0,0,1,12.82,12.82"/><line class="cls-6" x1="165.97" y1="95.68" x2="165.97" y2="126.45"/><path class="cls-5" d="M178.79,128.85A12.82,12.82,0,1,1,166,116a12.81,12.81,0,0,1,12.82,12.82"/><path class="cls-7" d="M189.63,128.85A12.82,12.82,0,1,1,176.81,116a12.81,12.81,0,0,1,12.82,12.82"/><line class="cls-8" x1="799.68" y1="95.15" x2="799.68" y2="125.92"/><path class="cls-9" d="M341.28,128.85A12.82,12.82,0,1,1,328.46,116a12.81,12.81,0,0,1,12.82,12.82"/><path class="cls-10" d="M498.35,128.85A12.82,12.82,0,1,1,485.54,116a12.8,12.8,0,0,1,12.81,12.82"/><path class="cls-11" d="M655.43,128.85A12.82,12.82,0,1,1,642.61,116a12.81,12.81,0,0,1,12.82,12.82"/><path class="cls-7" d="M228.72,319H124.91A16.12,16.12,0,0,1,108.83,303V173.77a16.12,16.12,0,0,1,16.08-16.08H228.72a16.13,16.13,0,0,1,16.08,16.08V303A16.13,16.13,0,0,1,228.72,319"/><path class="cls-9" d="M384,319H280.17A16.13,16.13,0,0,1,264.09,303V173.77a16.13,16.13,0,0,1,16.08-16.08H384a16.13,16.13,0,0,1,16.09,16.08V303A16.13,16.13,0,0,1,384,319"/><path class="cls-10" d="M539.25,319H435.44A16.12,16.12,0,0,1,419.36,303V173.77a16.12,16.12,0,0,1,16.08-16.08H539.25a16.13,16.13,0,0,1,16.08,16.08V303A16.13,16.13,0,0,1,539.25,319"/><line class="cls-6" x1="14.32" y1="97.8" x2="14.32" y2="128.57"/><path class="cls-11" d="M694.51,319H590.7A16.13,16.13,0,0,1,574.62,303V173.77a16.13,16.13,0,0,1,16.08-16.08H694.51a16.13,16.13,0,0,1,16.09,16.08V303A16.13,16.13,0,0,1,694.51,319"/><path class="cls-5" d="M121.39,103.79H17.58A16.13,16.13,0,0,1,1.5,87.71V60.3A16.13,16.13,0,0,1,17.58,44.21H121.39A16.13,16.13,0,0,1,137.47,60.3V87.71a16.12,16.12,0,0,1-16.08,16.08"/><rect class="cls-8" x="1.5" y="44.21" width="135.97" height="59.58" rx="16.08"/><path class="cls-12" d="M418.89,103.79H169.23a16.13,16.13,0,0,1-16.08-16.08V60.3a16.13,16.13,0,0,1,16.08-16.09H418.89A16.13,16.13,0,0,1,435,60.3V87.71a16.13,16.13,0,0,1-16.08,16.08"/><rect class="cls-8" x="153.15" y="44.21" width="281.82" height="59.58" rx="16.08"/><path class="cls-12" d="M796.42,103.79H678.13a16.12,16.12,0,0,1-16.08-16.08V43.85a16.12,16.12,0,0,1,16.08-16.08H796.42A16.13,16.13,0,0,1,812.5,43.85V87.71a16.13,16.13,0,0,1-16.08,16.08"/><rect class="cls-8" x="662.05" y="27.77" width="150.45" height="76.03" rx="16.08"/><line class="cls-13" x1="176.81" y1="131.76" x2="176.81" y2="162.53"/><line class="cls-14" x1="328.46" y1="132.29" x2="328.46" y2="163.06"/><line class="cls-15" x1="485.54" y1="131.3" x2="485.54" y2="162.07"/><line class="cls-16" x1="641.89" y1="133.35" x2="641.89" y2="164.12"/><text class="cls-17" transform="translate(30.15 72.22)">PHASE II:</text><text class="cls-18" transform="translate(7.42 88.77)">mig<tspan class="cls-19" x="24.35" y="0">r</tspan><tspan class="cls-20" x="29.16" y="0">a</tspan><tspan x="36.39" y="0">tion complete</tspan></text><text class="cls-21" transform="translate(183.9 72.22)">PHASE III: <tspan class="cls-22" x="88.12" y="0">P</tspan><tspan class="cls-23" x="97.97" y="0">olicy + </tspan><tspan class="cls-24" x="157.73" y="0">P</tspan><tspan class="cls-25" x="167.92" y="0">r</tspan><tspan class="cls-23" x="174.18" y="0">ocess</tspan></text><text class="cls-26" transform="translate(225.12 88.77)">upd<tspan class="cls-27" x="25.56" y="0">a</tspan><tspan x="32.8" y="0">tes go into e</tspan><tspan class="cls-28" x="110.84" y="0">f</tspan><tspan x="114.66" y="0">fect</tspan></text><text class="cls-21" transform="translate(695.47 55.54)">PHASE III:</text><text class="cls-26" transform="translate(675.28 72.1)">mig<tspan class="cls-29" x="24.35" y="0">r</tspan><tspan class="cls-20" x="29.16" y="0">a</tspan><tspan x="36.39" y="0">tion complete</tspan></text><text class="cls-26" transform="translate(674.41 88.65)">+ hype<tspan class="cls-30" x="44.06" y="0">r</tspan><tspan x="48.71" y="0">-ca</tspan><tspan class="cls-31" x="67.39" y="0">r</tspan><tspan class="cls-32" x="72.12" y="0">e period</tspan></text><text class="cls-21" transform="translate(681.13 15.41)">3Q/4Q 2022</text><text class="cls-21" transform="translate(219.89 32.04)"><tspan class="cls-33">J</tspan><tspan x="8.89" y="0">anuary 24</tspan><tspan class="cls-34" x="92.07" y="0">,</tspan><tspan x="96.24" y="0" xml:space="preserve"> 2022</tspan></text><text class="cls-21" transform="translate(31.95 33.08)">1Q 2021</text><path class="cls-12" d="M227.9,313.13H125.73a11.11,11.11,0,0,1-11.08-11.08V210.23a.48.48,0,0,1,.48-.48H239v92.3a11.1,11.1,0,0,1-11.07,11.08"/><text class="cls-18" transform="translate(123.2 180.28)"><tspan class="cls-35">J</tspan><tspan x="6.72" y="0">anuary 24</tspan><tspan class="cls-36" x="68.63" y="0">,</tspan><tspan x="71.81" y="0" xml:space="preserve"> 2022</tspan></text><text class="cls-37" transform="translate(120.08 196.83)"><tspan class="cls-38">W</tspan><tspan class="cls-39" x="11.52" y="0">A</tspan><tspan x="19.55" y="0">VE 1 GO-LIVE</tspan></text><text class="cls-40" transform="translate(126.05 232.92)">Plants<tspan class="cls-41" x="38.54" y="0"> </tspan><tspan class="cls-42" x="41.74" y="0">A</tspan><tspan class="cls-43" x="51.48" y="0">f</tspan><tspan x="55.67" y="0">fected:</tspan></text><text class="cls-44" transform="translate(143.32 249.47)">High <tspan class="cls-45" x="30.51" y="0">P</tspan><tspan x="36.97" y="0">oint</tspan></text><path class="cls-12" d="M383.16,313.13H281a11.1,11.1,0,0,1-11.08-11.08V210.23a.47.47,0,0,1,.48-.48H394.24v92.3a11.11,11.11,0,0,1-11.08,11.08"/><text class="cls-18" transform="translate(283.42 180.28)">Ma<tspan class="cls-31" x="19.59" y="0">r</tspan><tspan x="24.32" y="0">ch 28</tspan><tspan class="cls-36" x="58.71" y="0">,</tspan><tspan class="cls-46" x="61.9" y="0" xml:space="preserve"> 2022</tspan></text><text class="cls-37" transform="translate(275.34 196.83)"><tspan class="cls-38">W</tspan><tspan class="cls-39" x="11.52" y="0">A</tspan><tspan x="19.55" y="0">VE 2 GO-LIVE</tspan></text><text class="cls-47" transform="translate(281.31 232.92)">Plants<tspan class="cls-31" x="38.54" y="0"> </tspan><tspan x="41.76" y="0">A</tspan><tspan class="cls-43" x="51.49" y="0">f</tspan><tspan x="55.69" y="0">fected:</tspan></text><text class="cls-48" transform="translate(291.82 249.47)">Hagerstown,</text><text class="cls-48" transform="translate(294.4 266.02)"><tspan class="cls-19">K</tspan><tspan x="8.51" y="0">ansas Cit</tspan><tspan class="cls-49" x="64.71" y="0">y</tspan><tspan x="70.94" y="0">,</tspan></text><text class="cls-48" transform="translate(306.19 282.58)">Phoenix</text><path class="cls-12" d="M538.43,313.13H436.26a11.11,11.11,0,0,1-11.08-11.08V210.23a.48.48,0,0,1,.48-.48H549.5v92.3a11.1,11.1,0,0,1-11.07,11.08"/><text class="cls-18" transform="translate(433.73 180.28)"><tspan class="cls-35">J</tspan><tspan x="6.72" y="0">anuary 24</tspan><tspan class="cls-36" x="68.63" y="0">,</tspan><tspan x="71.81" y="0" xml:space="preserve"> 2022</tspan></text><text class="cls-37" transform="translate(430.61 196.83)"><tspan class="cls-38">W</tspan><tspan class="cls-39" x="11.52" y="0">A</tspan><tspan x="19.55" y="0">VE 1 GO-LIVE</tspan></text><text class="cls-50" transform="translate(436.58 232.92)">Plants<tspan class="cls-41" x="38.54" y="0"> </tspan><tspan class="cls-42" x="41.74" y="0">A</tspan><tspan class="cls-43" x="51.48" y="0">f</tspan><tspan x="55.67" y="0">fected:</tspan></text><text class="cls-51" transform="translate(431.56 249.47)">Alban<tspan class="cls-52" x="37.3" y="0">y</tspan><tspan class="cls-53" x="43.55" y="0">,</tspan><tspan x="46.74" y="0" xml:space="preserve"> B</tspan><tspan class="cls-31" x="58.96" y="0">r</tspan><tspan x="63.69" y="0">enham,</tspan></text><text class="cls-51" transform="translate(432.88 266.02)">Denve<tspan class="cls-54" x="40.97" y="0">r</tspan><tspan class="cls-55" x="45.29" y="0">,</tspan><tspan x="48.46" y="0" xml:space="preserve"> Orland</tspan><tspan class="cls-38" x="96.24" y="0">o</tspan><tspan x="104.52" y="0">,</tspan></text><text class="cls-51" transform="translate(456.14 282.58)">Plainﬁeld<tspan class="cls-39" x="57.96" y="0">,</tspan><tspan x="61.14" y="0"> </tspan></text><text class="cls-51" transform="translate(454.68 299.13)">Richmond</text><path class="cls-12" d="M693.69,313.13H591.53a11.1,11.1,0,0,1-11.08-11.08V210.23a.47.47,0,0,1,.48-.48H704.77v92.3a11.11,11.11,0,0,1-11.08,11.08"/><text class="cls-18" transform="translate(588.99 180.28)"><tspan class="cls-35">J</tspan><tspan x="6.72" y="0">anuary 24</tspan><tspan class="cls-53" x="68.63" y="0">,</tspan><tspan x="71.81" y="0" xml:space="preserve"> 2022</tspan></text><text class="cls-37" transform="translate(585.87 196.83)"><tspan class="cls-38">W</tspan><tspan class="cls-39" x="11.52" y="0">A</tspan><tspan x="19.55" y="0">VE 1 GO-LIVE</tspan></text><text class="cls-56" transform="translate(591.85 232.92)">Plants<tspan class="cls-31" x="38.54" y="0"> </tspan><tspan x="41.76" y="0">A</tspan><tspan class="cls-57" x="51.49" y="0">f</tspan><tspan x="55.69" y="0">fected:</tspan></text><text class="cls-58" transform="translate(595.64 249.47)">Atlanta<tspan class="cls-53" x="44.62" y="0">,</tspan><tspan class="cls-59" x="47.81" y="0" xml:space="preserve"> Dallas,</tspan></text><text class="cls-58" transform="translate(622.68 266.02)">Lace<tspan class="cls-60" x="29.19" y="0">y</tspan><tspan class="cls-53" x="35.44" y="0">,</tspan><tspan class="cls-59" x="38.62" y="0"> </tspan></text><text class="cls-61" transform="translate(602.23 282.58)">L<tspan class="cls-42" x="6.79" y="0">os</tspan><tspan x="21.34" y="0"> </tspan><tspan class="cls-42" x="24.54" y="0">Angeles,</tspan></text><text class="cls-58" transform="translate(598.59 299.13)">Medina<tspan class="cls-53" x="47.73" y="0">,</tspan><tspan x="50.92" y="0"> </tspan><tspan class="cls-38" x="54.36" y="0">R</tspan><tspan x="62.48" y="0">eno</tspan></text></svg>